<?xml version="1.0" standalone="no"?>
<!DOCTYPE svg PUBLIC "-//W3C//DTD SVG 20010904//EN"
 "http://www.w3.org/TR/2001/REC-SVG-20010904/DTD/svg10.dtd">
<svg version="1.0" xmlns="http://www.w3.org/2000/svg"
 width="682.000000pt" height="682.000000pt" viewBox="0 0 682.000000 682.000000"
 preserveAspectRatio="xMidYMid meet">
<metadata>
Created by potrace 1.11, written by Peter Selinger 2001-2013
</metadata>
<g transform="translate(0.000000,682.000000) scale(0.100000,-0.100000)"
fill="#000000" stroke="none">
<path d="M2910 5280 c0 -522 -2 -950 -3 -950 -4 0 -1552 894 -1613 931 l-30
18 -253 -435 c-140 -239 -254 -442 -255 -451 -1 -10 260 -166 809 -484 445
-257 811 -472 813 -477 1 -4 -362 -219 -808 -476 -446 -258 -813 -473 -816
-478 -7 -10 496 -880 511 -885 6 -1 377 208 825 466 l815 470 3 -950 2 -949
520 0 520 0 2 950 3 950 810 -467 c446 -256 817 -468 825 -470 11 -2 84 117
248 399 128 222 243 421 257 444 l24 41 -820 473 c-451 260 -821 476 -823 479
-2 3 367 220 820 481 784 452 823 475 810 495 -7 11 -124 212 -260 447 l-247
427 -57 -34 c-285 -166 -1585 -915 -1588 -915 -2 0 -4 428 -4 950 l0 950 -520
0 -520 0 0 -950z"/>
</g>
</svg>
